<svg preserveAspectRatio="none" overflow="visible" style="display: block;" width="38" height="46" viewBox="0 0 38 46" fill="none" xmlns="http://www.w3.org/2000/svg">
<g id="Frame 2147225864">
<path id="Icon" d="M35.5 29.0667V16.9333C35.5 14.5064 35.5 13.293 34.9005 12.366C34.3732 11.5507 33.5318 10.8878 32.4969 10.4723C31.3204 10 29.7803 10 26.7 10H11.3C8.21971 10 6.67957 10 5.50305 10.4723C4.46816 10.8878 3.62677 11.5507 3.09946 12.366C2.5 13.293 2.5 14.5064 2.5 16.9333V29.0667C2.5 31.4936 2.5 32.707 3.09946 33.634C3.62677 34.4493 4.46816 35.1122 5.50305 35.5277C6.67957 36 8.21971 36 11.3 36H26.7C29.7803 36 31.3204 36 32.4969 35.5277C33.5318 35.1122 34.3732 34.4493 34.9005 33.634C35.5 32.707 35.5 31.4936 35.5 29.0667Z" stroke="white" stroke-width="3" stroke-linecap="round" stroke-linejoin="round"/>
</g>
</svg>
